<svg width="21" height="20" viewBox="0 0 21 20" fill="none" xmlns="http://www.w3.org/2000/svg">
<path d="M10.1455 0.700195C10.4487 0.700195 10.7396 0.820767 10.9541 1.03516C11.1686 1.24963 11.2891 1.54047 11.2891 1.84375L11.29 1.84961C11.2915 2.01457 11.3323 2.17618 11.4092 2.32031L11.498 2.45801C11.6301 2.63116 11.8143 2.75649 12.0234 2.81738V2.81836C13.4071 3.22378 14.6226 4.06694 15.4873 5.2207C16.352 6.37438 16.8194 7.77696 16.8203 9.21875V14.71C16.8203 15.293 16.9717 15.8664 17.2588 16.374C17.5458 16.8817 17.9592 17.3069 18.459 17.6074L19.4746 18.2168L19.4785 18.2188C19.5105 18.2378 19.5369 18.2648 19.5557 18.2969V18.2979C19.5756 18.3346 19.5856 18.3763 19.585 18.418C19.5843 18.4594 19.5735 18.5002 19.5527 18.5361H19.5518C19.5308 18.5722 19.5016 18.6028 19.4658 18.624C19.43 18.6453 19.3886 18.6572 19.3467 18.6582H0.93457C0.908805 18.6579 0.883411 18.6529 0.859375 18.6445L0.791992 18.6084L0.739258 18.5518C0.725286 18.5307 0.714693 18.5072 0.708008 18.4824C0.694559 18.4324 0.698333 18.3791 0.717773 18.3311C0.737179 18.2834 0.771298 18.2432 0.81543 18.2168L0.817383 18.2158L1.83203 17.6064H1.83301C2.33278 17.3059 2.74615 16.8806 3.0332 16.373C3.32019 15.8655 3.47076 15.292 3.4707 14.709V9.21875L3.47656 8.94922C3.53179 7.60277 3.99397 6.30238 4.80469 5.2207C5.66837 4.06836 6.88117 3.22533 8.2627 2.81934L8.26367 2.82031C8.42208 2.77504 8.56631 2.69215 8.68457 2.58008L8.79395 2.45801C8.92685 2.28351 8.99979 2.07031 9.00195 1.85059V1.84375C9.00195 1.5406 9.12261 1.2496 9.33691 1.03516C9.55128 0.820792 9.84236 0.700313 10.1455 0.700195Z" stroke="#221F1F" stroke-opacity="0.6" stroke-width="1.4"/>
</svg>
